<?xml version="1.0" encoding="utf-8"?>
<!-- Generated by Mocodo 4.2.8 -->
<svg width="1460" height="501" viewBox="0 0 1460 501" xmlns="http://www.w3.org/2000/svg">
<rect x="0" y="0" width="1460" height="501" fill="#ffffbf" stroke="none" stroke-width="0"/>

<!-- Association CATEGORISER -->
<g>
	<line x1="305" y1="111" x2="176" y2="111" stroke="#66c2a5" stroke-width="2"/>
	<line x1="53" y1="111" x2="176" y2="111" stroke="#66c2a5" stroke-width="2"/>
	<g>
		<path d="M214 86 a14 14 90 0 1 14 14 V111 h-104 V100 a14 14 90 0 1 14 -14" fill="#abdda4" stroke="#abdda4" stroke-width="0"/>
		<path d="M228 111 v11 a14 14 90 0 1 -14 14 H138 a14 14 90 0 1 -14 -14 V111 H104" fill="#e6f598" stroke="#e6f598" stroke-width="0"/>
		<rect x="124" y="86" width="104" height="50" fill="none" rx="14" stroke="#66c2a5" stroke-width="2"/>
		<line x1="124" y1="111" x2="228" y2="111" stroke="#66c2a5" stroke-width="1"/>
		<text x="132" y="103.75" fill="#000000" font-family="Verdana" font-size="12">CATÉGORISER</text>
	</g>
	<text x="233" y="128" fill="#d53e4f" font-family="Verdana" font-size="12">1,N</text>
	<text x="97" y="128" fill="#d53e4f" font-family="Verdana" font-size="12">1,1</text>
</g>

<!-- Association INCLURE -->
<g>
	<line x1="305" y1="111" x2="423" y2="111" stroke="#66c2a5" stroke-width="2"/>
	<line x1="582" y1="111" x2="423" y2="111" stroke="#66c2a5" stroke-width="2"/>
	<g>
		<path d="M444 86 a14 14 90 0 1 14 14 V111 h-70 V100 a14 14 90 0 1 14 -14" fill="#abdda4" stroke="#abdda4" stroke-width="0"/>
		<path d="M458 111 v11 a14 14 90 0 1 -14 14 H402 a14 14 90 0 1 -14 -14 V111 H70" fill="#e6f598" stroke="#e6f598" stroke-width="0"/>
		<rect x="388" y="86" width="70" height="50" fill="none" rx="14" stroke="#66c2a5" stroke-width="2"/>
		<line x1="388" y1="111" x2="458" y2="111" stroke="#66c2a5" stroke-width="1"/>
		<text x="396" y="103.75" fill="#000000" font-family="Verdana" font-size="12">INCLURE</text>
	</g>
	<text x="355" y="128" fill="#d53e4f" font-family="Verdana" font-size="12">0,N</text>
	<text x="463" y="128" fill="#d53e4f" font-family="Verdana" font-size="12">0,N</text>
</g>

<!-- Association COMPOSER -->
<g>
	<line x1="896" y1="111" x2="748" y2="111" stroke="#66c2a5" stroke-width="2"/>
	<line x1="582" y1="111" x2="748" y2="111" stroke="#66c2a5" stroke-width="2"/>
	<g>
		<path d="M776 86 a14 14 90 0 1 14 14 V111 h-84 V100 a14 14 90 0 1 14 -14" fill="#abdda4" stroke="#abdda4" stroke-width="0"/>
		<path d="M790 111 v11 a14 14 90 0 1 -14 14 H720 a14 14 90 0 1 -14 -14 V111 H84" fill="#e6f598" stroke="#e6f598" stroke-width="0"/>
		<rect x="706" y="86" width="84" height="50" fill="none" rx="14" stroke="#66c2a5" stroke-width="2"/>
		<line x1="706" y1="111" x2="790" y2="111" stroke="#66c2a5" stroke-width="1"/>
		<text x="713" y="103.75" fill="#000000" font-family="Verdana" font-size="12">COMPOSER</text>
	</g>
	<text x="795" y="103" fill="#d53e4f" font-family="Verdana" font-size="12">1,N</text>
	<text x="679" y="128" fill="#d53e4f" font-family="Verdana" font-size="12">1,N</text>
</g>

<!-- Association EVALUER -->
<g>
	<line x1="896" y1="111" x2="1040" y2="111" stroke="#66c2a5" stroke-width="2"/>
	<line x1="1172" y1="111" x2="1040" y2="111" stroke="#66c2a5" stroke-width="2"/>
	<g>
		<path d="M1061 86 a14 14 90 0 1 14 14 V111 h-70 V100 a14 14 90 0 1 14 -14" fill="#abdda4" stroke="#abdda4" stroke-width="0"/>
		<path d="M1075 111 v11 a14 14 90 0 1 -14 14 H1019 a14 14 90 0 1 -14 -14 V111 H70" fill="#e6f598" stroke="#e6f598" stroke-width="0"/>
		<rect x="1005" y="86" width="70" height="50" fill="none" rx="14" stroke="#66c2a5" stroke-width="2"/>
		<line x1="1005" y1="111" x2="1075" y2="111" stroke="#66c2a5" stroke-width="1"/>
		<text x="1012" y="103.75" fill="#000000" font-family="Verdana" font-size="12">ÉVALUER</text>
	</g>
	<text x="975" y="128" fill="#d53e4f" font-family="Verdana" font-size="12">0,1</text>
	<text x="1093" y="128" fill="#d53e4f" font-family="Verdana" font-size="12">0,1</text>
</g>

<!-- Association ILLUSTRER -->
<g>
	<line x1="1172" y1="111" x2="1298" y2="111" stroke="#66c2a5" stroke-width="2"/>
	<line x1="1411" y1="111" x2="1298" y2="111" stroke="#66c2a5" stroke-width="2"/>
	<g>
		<path d="M1325 86 a14 14 90 0 1 14 14 V111 h-82 V100 a14 14 90 0 1 14 -14" fill="#abdda4" stroke="#abdda4" stroke-width="0"/>
		<path d="M1339 111 v11 a14 14 90 0 1 -14 14 H1271 a14 14 90 0 1 -14 -14 V111 H82" fill="#e6f598" stroke="#e6f598" stroke-width="0"/>
		<rect x="1257" y="86" width="82" height="50" fill="none" rx="14" stroke="#66c2a5" stroke-width="2"/>
		<line x1="1257" y1="111" x2="1339" y2="111" stroke="#66c2a5" stroke-width="1"/>
		<text x="1264" y="103.75" fill="#000000" font-family="Verdana" font-size="12">ILLUSTRER</text>
	</g>
	<text x="1230" y="128" fill="#d53e4f" font-family="Verdana" font-size="12">0,1</text>
	<text x="1345" y="128" fill="#d53e4f" font-family="Verdana" font-size="12">0,1</text>
</g>

<!-- Association SIGNALER -->
<g>
	<line x1="305" y1="365" x2="176" y2="365" stroke="#66c2a5" stroke-width="2"/>
	<line x1="53" y1="365" x2="176" y2="365" stroke="#66c2a5" stroke-width="2"/>
	<g>
		<path d="M201 340 a14 14 90 0 1 14 14 V365 h-78 V354 a14 14 90 0 1 14 -14" fill="#abdda4" stroke="#abdda4" stroke-width="0"/>
		<path d="M215 365 v11 a14 14 90 0 1 -14 14 H151 a14 14 90 0 1 -14 -14 V365 H78" fill="#e6f598" stroke="#e6f598" stroke-width="0"/>
		<rect x="137" y="340" width="78" height="50" fill="none" rx="14" stroke="#66c2a5" stroke-width="2"/>
		<line x1="137" y1="365" x2="215" y2="365" stroke="#66c2a5" stroke-width="1"/>
		<text x="145" y="357.75" fill="#000000" font-family="Verdana" font-size="12">SIGNALER</text>
	</g>
	<text x="240" y="382" fill="#d53e4f" font-family="Verdana" font-size="12">0,N</text>
	<text x="102" y="382" fill="#d53e4f" font-family="Verdana" font-size="12">0,N</text>
</g>

<!-- Association CONFIGURER -->
<g>
	<line x1="305" y1="365" x2="423" y2="365" stroke="#66c2a5" stroke-width="2"/>
	<line x1="582" y1="365" x2="423" y2="365" stroke="#66c2a5" stroke-width="2"/>
	<g>
		<path d="M457 340 a14 14 90 0 1 14 14 V365 h-96 V354 a14 14 90 0 1 14 -14" fill="#abdda4" stroke="#abdda4" stroke-width="0"/>
		<path d="M471 365 v11 a14 14 90 0 1 -14 14 H389 a14 14 90 0 1 -14 -14 V365 H96" fill="#e6f598" stroke="#e6f598" stroke-width="0"/>
		<rect x="375" y="340" width="96" height="50" fill="none" rx="14" stroke="#66c2a5" stroke-width="2"/>
		<line x1="375" y1="365" x2="471" y2="365" stroke="#66c2a5" stroke-width="1"/>
		<text x="382" y="357.75" fill="#000000" font-family="Verdana" font-size="12">CONFIGURER</text>
	</g>
	<text x="348" y="382" fill="#d53e4f" font-family="Verdana" font-size="12">1,N</text>
	<text x="481" y="382" fill="#d53e4f" font-family="Verdana" font-size="12">1,N</text>
</g>

<!-- Association PLANIFIER -->
<g>
	<line x1="582" y1="365" x2="748" y2="365" stroke="#66c2a5" stroke-width="2"/>
	<line x1="896" y1="111" x2="748" y2="365" stroke="#66c2a5" stroke-width="2"/>
	<g>
		<path d="M774 340 a14 14 90 0 1 14 14 V365 h-80 V354 a14 14 90 0 1 14 -14" fill="#abdda4" stroke="#abdda4" stroke-width="0"/>
		<path d="M788 365 v11 a14 14 90 0 1 -14 14 H722 a14 14 90 0 1 -14 -14 V365 H80" fill="#e6f598" stroke="#e6f598" stroke-width="0"/>
		<rect x="708" y="340" width="80" height="50" fill="none" rx="14" stroke="#66c2a5" stroke-width="2"/>
		<line x1="708" y1="365" x2="788" y2="365" stroke="#66c2a5" stroke-width="1"/>
		<text x="716" y="357.75" fill="#000000" font-family="Verdana" font-size="12">PLANIFIER</text>
	</g>
	<text x="661" y="382" fill="#d53e4f" font-family="Verdana" font-size="12">1,N</text>
	<text x="837.05" y="230" fill="#d53e4f" font-family="Verdana" font-size="12">0,N</text>
</g>

<!-- Association RESERVER -->
<g>
	<line x1="1040" y1="365" x2="896" y2="365" stroke="#66c2a5" stroke-width="2"/>
	<line x1="896" y1="111" x2="896" y2="365" stroke="#66c2a5" stroke-width="2"/>
	<g>
		<path d="M922 340 a14 14 90 0 1 14 14 V365 h-80 V354 a14 14 90 0 1 14 -14" fill="#abdda4" stroke="#abdda4" stroke-width="0"/>
		<path d="M936 365 v11 a14 14 90 0 1 -14 14 H870 a14 14 90 0 1 -14 -14 V365 H80" fill="#e6f598" stroke="#e6f598" stroke-width="0"/>
		<rect x="856" y="340" width="80" height="50" fill="none" rx="14" stroke="#66c2a5" stroke-width="2"/>
		<line x1="856" y1="365" x2="936" y2="365" stroke="#66c2a5" stroke-width="1"/>
		<text x="864" y="357.75" fill="#000000" font-family="Verdana" font-size="12">RESERVER</text>
	</g>
	<text x="941" y="382" fill="#d53e4f" font-family="Verdana" font-size="12">1,N</text>
	<text x="901" y="230" fill="#d53e4f" font-family="Verdana" font-size="12">0,N</text>
</g>

<!-- Association CREER -->
<g>
	<line x1="1040" y1="365" x2="1172" y2="365" stroke="#66c2a5" stroke-width="2"/>
	<line x1="1172" y1="111" x2="1172" y2="365" stroke="#66c2a5" stroke-width="2"/>
	<g>
		<path d="M1186 340 a14 14 90 0 1 14 14 V365 h-56 V354 a14 14 90 0 1 14 -14" fill="#abdda4" stroke="#abdda4" stroke-width="0"/>
		<path d="M1200 365 v11 a14 14 90 0 1 -14 14 H1158 a14 14 90 0 1 -14 -14 V365 H56" fill="#e6f598" stroke="#e6f598" stroke-width="0"/>
		<rect x="1144" y="340" width="56" height="50" fill="none" rx="14" stroke="#66c2a5" stroke-width="2"/>
		<line x1="1144" y1="365" x2="1200" y2="365" stroke="#66c2a5" stroke-width="1"/>
		<text x="1152" y="357.75" fill="#000000" font-family="Verdana" font-size="12">CRÉER</text>
	</g>
	<text x="1117" y="382" fill="#d53e4f" font-family="Verdana" font-size="12">1,N</text>
	<text x="1177" y="204" fill="#d53e4f" font-family="Verdana" font-size="12">1,N</text>
</g>

<!-- Entity CATEGORY -->
<g>
	<g>
		<rect x="14" y="77" width="78" height="25" fill="#fdae61" stroke="none" stroke-width="0" opacity="1"/>
		<rect x="14" y="102" width="78" height="43" fill="#fee08b" stroke="none" stroke-width="0" opacity="1"/>
		<rect x="14" y="77" width="78" height="68" fill="none" stroke="#f46d43" stroke-width="2" opacity="1"/>
		<line x1="14" y1="102" x2="92" y2="102" stroke="#f46d43" stroke-width="1"/>
	</g>
	<text x="20" y="94.75" fill="#000000" font-family="Verdana" font-size="12">CATEGORY</text>
	<text x="19" y="119.8" fill="#000000" font-family="Verdana" font-size="12">id</text>
	<line x1="19" y1="122" x2="31" y2="122" stroke="#000000" stroke-width="1"/>
	<text x="19" y="136.8" fill="#000000" font-family="Verdana" font-size="12">name</text>
</g>

<!-- Entity PRESTATION -->
<g>
	<g>
		<rect x="260" y="43" width="90" height="25" fill="#fdae61" stroke="none" stroke-width="0" opacity="1"/>
		<rect x="260" y="68" width="90" height="111" fill="#fee08b" stroke="none" stroke-width="0" opacity="1"/>
		<rect x="260" y="43" width="90" height="136" fill="none" stroke="#f46d43" stroke-width="2" opacity="1"/>
		<line x1="260" y1="68" x2="350" y2="68" stroke="#f46d43" stroke-width="1"/>
	</g>
	<text x="266" y="60.75" fill="#000000" font-family="Verdana" font-size="12">PRESTATION</text>
	<text x="265" y="85.8" fill="#000000" font-family="Verdana" font-size="12">id</text>
	<line x1="265" y1="88" x2="277" y2="88" stroke="#000000" stroke-width="1"/>
	<text x="265" y="102.8" fill="#000000" font-family="Verdana" font-size="12">nom</text>
	<text x="265" y="119.8" fill="#000000" font-family="Verdana" font-size="12">description</text>
	<text x="265" y="136.8" fill="#000000" font-family="Verdana" font-size="12">prix</text>
	<text x="265" y="153.8" fill="#000000" font-family="Verdana" font-size="12">temps</text>
	<text x="265" y="170.8" fill="#000000" font-family="Verdana" font-size="12">category_id</text>
</g>

<!-- Entity APPOINTMENT_PRESTATION -->
<g>
	<g>
		<rect x="490" y="77" width="184" height="25" fill="#fdae61" stroke="none" stroke-width="0" opacity="1"/>
		<rect x="490" y="102" width="184" height="43" fill="#fee08b" stroke="none" stroke-width="0" opacity="1"/>
		<rect x="490" y="77" width="184" height="68" fill="none" stroke="#f46d43" stroke-width="2" opacity="1"/>
		<line x1="490" y1="102" x2="674" y2="102" stroke="#f46d43" stroke-width="1"/>
	</g>
	<text x="495" y="94.75" fill="#000000" font-family="Verdana" font-size="12">APPOINTMENT_PRESTATION</text>
	<text x="495" y="119.8" fill="#000000" font-family="Verdana" font-size="12">appointment_id</text>
	<line x1="495" y1="122" x2="591" y2="122" stroke="#000000" stroke-width="1"/>
	<text x="495" y="136.8" fill="#000000" font-family="Verdana" font-size="12">prestation_id</text>
</g>

<!-- Entity APPOINTMENT -->
<g>
	<g>
		<rect x="822" y="9" width="148" height="25" fill="#fdae61" stroke="none" stroke-width="0" opacity="1"/>
		<rect x="822" y="34" width="148" height="179" fill="#fee08b" stroke="none" stroke-width="0" opacity="1"/>
		<rect x="822" y="9" width="148" height="204" fill="none" stroke="#f46d43" stroke-width="2" opacity="1"/>
		<line x1="822" y1="34" x2="970" y2="34" stroke="#f46d43" stroke-width="1"/>
	</g>
	<text x="852" y="26.75" fill="#000000" font-family="Verdana" font-size="12">APPOINTMENT</text>
	<text x="827" y="51.8" fill="#000000" font-family="Verdana" font-size="12">id</text>
	<line x1="827" y1="54" x2="839" y2="54" stroke="#000000" stroke-width="1"/>
	<text x="827" y="68.8" fill="#000000" font-family="Verdana" font-size="12">employee_id</text>
	<text x="827" y="85.8" fill="#000000" font-family="Verdana" font-size="12">utilisateur_id</text>
	<text x="827" y="102.8" fill="#000000" font-family="Verdana" font-size="12">start_time</text>
	<text x="827" y="119.8" fill="#000000" font-family="Verdana" font-size="12">end_time</text>
	<text x="827" y="136.8" fill="#000000" font-family="Verdana" font-size="12">created_at</text>
	<text x="827" y="153.8" fill="#000000" font-family="Verdana" font-size="12">updated_at</text>
	<text x="827" y="170.8" fill="#000000" font-family="Verdana" font-size="12">bookable_type</text>
	<text x="827" y="187.8" fill="#000000" font-family="Verdana" font-size="12">bookable_id</text>
	<text x="827" y="204.8" fill="#000000" font-family="Verdana" font-size="12">review_invitation_sent</text>
</g>

<!-- Entity REVIEW -->
<g>
	<g>
		<rect x="1119" y="35" width="106" height="25" fill="#fdae61" stroke="none" stroke-width="0" opacity="1"/>
		<rect x="1119" y="60" width="106" height="127" fill="#fee08b" stroke="none" stroke-width="0" opacity="1"/>
		<rect x="1119" y="35" width="106" height="152" fill="none" stroke="#f46d43" stroke-width="2" opacity="1"/>
		<line x1="1119" y1="60" x2="1225" y2="60" stroke="#f46d43" stroke-width="1"/>
	</g>
	<text x="1147" y="52.75" fill="#000000" font-family="Verdana" font-size="12">REVIEW</text>
	<text x="1124" y="77.8" fill="#000000" font-family="Verdana" font-size="12">id</text>
	<line x1="1124" y1="80" x2="1136" y2="80" stroke="#000000" stroke-width="1"/>
	<text x="1124" y="94.8" fill="#000000" font-family="Verdana" font-size="12">photo_id</text>
	<text x="1124" y="111.8" fill="#000000" font-family="Verdana" font-size="12">appointment_id</text>
	<text x="1124" y="128.8" fill="#000000" font-family="Verdana" font-size="12">rating</text>
	<text x="1124" y="145.8" fill="#000000" font-family="Verdana" font-size="12">comment</text>
	<text x="1124" y="162.8" fill="#000000" font-family="Verdana" font-size="12">created_at</text>
	<text x="1124" y="179.8" fill="#000000" font-family="Verdana" font-size="12">updated_at</text>
</g>

<!-- Entity PHOTO -->
<g>
	<g>
		<rect x="1371" y="52" width="80" height="25" fill="#fdae61" stroke="none" stroke-width="0" opacity="1"/>
		<rect x="1371" y="77" width="80" height="93" fill="#fee08b" stroke="none" stroke-width="0" opacity="1"/>
		<rect x="1371" y="52" width="80" height="118" fill="none" stroke="#f46d43" stroke-width="2" opacity="1"/>
		<line x1="1371" y1="77" x2="1451" y2="77" stroke="#f46d43" stroke-width="1"/>
	</g>
	<text x="1389" y="69.75" fill="#000000" font-family="Verdana" font-size="12">PHOTO</text>
	<text x="1376" y="94.8" fill="#000000" font-family="Verdana" font-size="12">id</text>
	<line x1="1376" y1="97" x2="1388" y2="97" stroke="#000000" stroke-width="1"/>
	<text x="1376" y="111.8" fill="#000000" font-family="Verdana" font-size="12">review_id</text>
	<text x="1376" y="128.8" fill="#000000" font-family="Verdana" font-size="12">filename</text>
	<text x="1376" y="145.8" fill="#000000" font-family="Verdana" font-size="12">created_at</text>
	<text x="1376" y="162.8" fill="#000000" font-family="Verdana" font-size="12">updated_at</text>
</g>

<!-- Entity ABSENCE -->
<g>
	<g>
		<rect x="9" y="297" width="88" height="25" fill="#fdae61" stroke="none" stroke-width="0" opacity="1"/>
		<rect x="9" y="322" width="88" height="111" fill="#fee08b" stroke="none" stroke-width="0" opacity="1"/>
		<rect x="9" y="297" width="88" height="136" fill="none" stroke="#f46d43" stroke-width="2" opacity="1"/>
		<line x1="9" y1="322" x2="97" y2="322" stroke="#f46d43" stroke-width="1"/>
	</g>
	<text x="24" y="314.75" fill="#000000" font-family="Verdana" font-size="12">ABSENCE</text>
	<text x="14" y="339.8" fill="#000000" font-family="Verdana" font-size="12">id</text>
	<line x1="14" y1="342" x2="26" y2="342" stroke="#000000" stroke-width="1"/>
	<text x="14" y="356.8" fill="#000000" font-family="Verdana" font-size="12">employee_id</text>
	<text x="14" y="373.8" fill="#000000" font-family="Verdana" font-size="12">start_time</text>
	<text x="14" y="390.8" fill="#000000" font-family="Verdana" font-size="12">end_time</text>
	<text x="14" y="407.8" fill="#000000" font-family="Verdana" font-size="12">created_at</text>
	<text x="14" y="424.8" fill="#000000" font-family="Verdana" font-size="12">updated_at</text>
</g>

<!-- Entity EMPLOYEE -->
<g>
	<g>
		<rect x="267" y="306" width="76" height="25" fill="#fdae61" stroke="none" stroke-width="0" opacity="1"/>
		<rect x="267" y="331" width="76" height="93" fill="#fee08b" stroke="none" stroke-width="0" opacity="1"/>
		<rect x="267" y="306" width="76" height="118" fill="none" stroke="#f46d43" stroke-width="2" opacity="1"/>
		<line x1="267" y1="331" x2="343" y2="331" stroke="#f46d43" stroke-width="1"/>
	</g>
	<text x="273" y="323.75" fill="#000000" font-family="Verdana" font-size="12">EMPLOYEE</text>
	<text x="272" y="348.8" fill="#000000" font-family="Verdana" font-size="12">id</text>
	<line x1="272" y1="351" x2="284" y2="351" stroke="#000000" stroke-width="1"/>
	<text x="272" y="365.8" fill="#000000" font-family="Verdana" font-size="12">name</text>
	<text x="272" y="382.8" fill="#000000" font-family="Verdana" font-size="12">email</text>
	<text x="272" y="399.8" fill="#000000" font-family="Verdana" font-size="12">surname</text>
	<text x="272" y="416.8" fill="#000000" font-family="Verdana" font-size="12">color</text>
</g>

<!-- Entity EMPLOYEE_SCHEDULE -->
<g>
	<g>
		<rect x="508" y="289" width="148" height="25" fill="#fdae61" stroke="none" stroke-width="0" opacity="1"/>
		<rect x="508" y="314" width="148" height="127" fill="#fee08b" stroke="none" stroke-width="0" opacity="1"/>
		<rect x="508" y="289" width="148" height="152" fill="none" stroke="#f46d43" stroke-width="2" opacity="1"/>
		<line x1="508" y1="314" x2="656" y2="314" stroke="#f46d43" stroke-width="1"/>
	</g>
	<text x="513" y="306.75" fill="#000000" font-family="Verdana" font-size="12">EMPLOYEE_SCHEDULE</text>
	<text x="513" y="331.8" fill="#000000" font-family="Verdana" font-size="12">id</text>
	<line x1="513" y1="334" x2="525" y2="334" stroke="#000000" stroke-width="1"/>
	<text x="513" y="348.8" fill="#000000" font-family="Verdana" font-size="12">employee_id</text>
	<text x="513" y="365.8" fill="#000000" font-family="Verdana" font-size="12">day_of_week</text>
	<text x="513" y="382.8" fill="#000000" font-family="Verdana" font-size="12">start_time</text>
	<text x="513" y="399.8" fill="#000000" font-family="Verdana" font-size="12">end_time</text>
	<text x="513" y="416.8" fill="#000000" font-family="Verdana" font-size="12">created_at</text>
	<text x="513" y="433.8" fill="#000000" font-family="Verdana" font-size="12">updated_at</text>
</g>

<!-- Entity USER -->
<g>
	<g>
		<rect x="968" y="238" width="144" height="25" fill="#fdae61" stroke="none" stroke-width="0" opacity="1"/>
		<rect x="968" y="263" width="144" height="229" fill="#fee08b" stroke="none" stroke-width="0" opacity="1"/>
		<rect x="968" y="238" width="144" height="254" fill="none" stroke="#f46d43" stroke-width="2" opacity="1"/>
		<line x1="968" y1="263" x2="1112" y2="263" stroke="#f46d43" stroke-width="1"/>
	</g>
	<text x="1023" y="255.75" fill="#000000" font-family="Verdana" font-size="12">USER</text>
	<text x="973" y="280.8" fill="#000000" font-family="Verdana" font-size="12">id</text>
	<line x1="973" y1="283" x2="985" y2="283" stroke="#000000" stroke-width="1"/>
	<text x="973" y="297.8" fill="#000000" font-family="Verdana" font-size="12">name</text>
	<text x="973" y="314.8" fill="#000000" font-family="Verdana" font-size="12">email</text>
	<text x="973" y="331.8" fill="#000000" font-family="Verdana" font-size="12">email_verified_at</text>
	<text x="973" y="348.8" fill="#000000" font-family="Verdana" font-size="12">password</text>
	<text x="973" y="365.8" fill="#000000" font-family="Verdana" font-size="12">remember_token</text>
	<text x="973" y="382.8" fill="#000000" font-family="Verdana" font-size="12">created_at</text>
	<text x="973" y="399.8" fill="#000000" font-family="Verdana" font-size="12">updated_at</text>
	<text x="973" y="416.8" fill="#000000" font-family="Verdana" font-size="12">google_token</text>
	<text x="973" y="433.8" fill="#000000" font-family="Verdana" font-size="12">google_refresh_token</text>
	<text x="973" y="450.8" fill="#000000" font-family="Verdana" font-size="12">is_admin</text>
	<text x="973" y="467.8" fill="#000000" font-family="Verdana" font-size="12">token_expires_at</text>
	<text x="973" y="484.8" fill="#000000" font-family="Verdana" font-size="12">role</text>
</g>

<!-- Entity SALON_SETTING -->
<g>
	<g>
		<rect x="1235" y="238" width="126" height="25" fill="#fdae61" stroke="none" stroke-width="0" opacity="1"/>
		<rect x="1235" y="263" width="126" height="229" fill="#fee08b" stroke="none" stroke-width="0" opacity="1"/>
		<rect x="1235" y="238" width="126" height="254" fill="none" stroke="#f46d43" stroke-width="2" opacity="1"/>
		<line x1="1235" y1="263" x2="1361" y2="263" stroke="#f46d43" stroke-width="1"/>
	</g>
	<text x="1246" y="255.75" fill="#000000" font-family="Verdana" font-size="12">SALON_SETTING</text>
	<text x="1240" y="280.8" fill="#000000" font-family="Verdana" font-size="12">id</text>
	<line x1="1240" y1="283" x2="1252" y2="283" stroke="#000000" stroke-width="1"/>
	<text x="1240" y="297.8" fill="#000000" font-family="Verdana" font-size="12">name</text>
	<text x="1240" y="314.8" fill="#000000" font-family="Verdana" font-size="12">address</text>
	<text x="1240" y="331.8" fill="#000000" font-family="Verdana" font-size="12">open_days</text>
	<text x="1240" y="348.8" fill="#000000" font-family="Verdana" font-size="12">slot_duration</text>
	<text x="1240" y="365.8" fill="#000000" font-family="Verdana" font-size="12">created_at</text>
	<text x="1240" y="382.8" fill="#000000" font-family="Verdana" font-size="12">updated_at</text>
	<text x="1240" y="399.8" fill="#000000" font-family="Verdana" font-size="12">facebook_page_url</text>
	<text x="1240" y="416.8" fill="#000000" font-family="Verdana" font-size="12">background_color</text>
	<text x="1240" y="433.8" fill="#000000" font-family="Verdana" font-size="12">image_selector</text>
	<text x="1240" y="450.8" fill="#000000" font-family="Verdana" font-size="12">background_image</text>
	<text x="1240" y="467.8" fill="#000000" font-family="Verdana" font-size="12">slogan</text>
	<text x="1240" y="484.8" fill="#000000" font-family="Verdana" font-size="12">logo</text>
</g>
</svg>